%TF.GenerationSoftware,KiCad,Pcbnew,7.0.9*%
%TF.CreationDate,2024-04-14T06:19:29-07:00*%
%TF.ProjectId,tascamusbc,74617363-616d-4757-9362-632e6b696361,rev?*%
%TF.SameCoordinates,Original*%
%TF.FileFunction,Legend,Bot*%
%TF.FilePolarity,Positive*%
%FSLAX46Y46*%
G04 Gerber Fmt 4.6, Leading zero omitted, Abs format (unit mm)*
G04 Created by KiCad (PCBNEW 7.0.9) date 2024-04-14 06:19:29*
%MOMM*%
%LPD*%
G01*
G04 APERTURE LIST*
%ADD10C,0.150000*%
G04 APERTURE END LIST*
D10*
X66952381Y-66074295D02*
X66952381Y-65274295D01*
X66609524Y-66074295D02*
X66609524Y-65655247D01*
X66609524Y-65655247D02*
X66647619Y-65579057D01*
X66647619Y-65579057D02*
X66723810Y-65540961D01*
X66723810Y-65540961D02*
X66838096Y-65540961D01*
X66838096Y-65540961D02*
X66914286Y-65579057D01*
X66914286Y-65579057D02*
X66952381Y-65617152D01*
X66114286Y-66074295D02*
X66190476Y-66036200D01*
X66190476Y-66036200D02*
X66228571Y-65998104D01*
X66228571Y-65998104D02*
X66266667Y-65921914D01*
X66266667Y-65921914D02*
X66266667Y-65693342D01*
X66266667Y-65693342D02*
X66228571Y-65617152D01*
X66228571Y-65617152D02*
X66190476Y-65579057D01*
X66190476Y-65579057D02*
X66114286Y-65540961D01*
X66114286Y-65540961D02*
X66000000Y-65540961D01*
X66000000Y-65540961D02*
X65923809Y-65579057D01*
X65923809Y-65579057D02*
X65885714Y-65617152D01*
X65885714Y-65617152D02*
X65847619Y-65693342D01*
X65847619Y-65693342D02*
X65847619Y-65921914D01*
X65847619Y-65921914D02*
X65885714Y-65998104D01*
X65885714Y-65998104D02*
X65923809Y-66036200D01*
X65923809Y-66036200D02*
X66000000Y-66074295D01*
X66000000Y-66074295D02*
X66114286Y-66074295D01*
X65504761Y-65540961D02*
X65504761Y-66340961D01*
X65504761Y-65579057D02*
X65428571Y-65540961D01*
X65428571Y-65540961D02*
X65276190Y-65540961D01*
X65276190Y-65540961D02*
X65199999Y-65579057D01*
X65199999Y-65579057D02*
X65161904Y-65617152D01*
X65161904Y-65617152D02*
X65123809Y-65693342D01*
X65123809Y-65693342D02*
X65123809Y-65921914D01*
X65123809Y-65921914D02*
X65161904Y-65998104D01*
X65161904Y-65998104D02*
X65199999Y-66036200D01*
X65199999Y-66036200D02*
X65276190Y-66074295D01*
X65276190Y-66074295D02*
X65428571Y-66074295D01*
X65428571Y-66074295D02*
X65504761Y-66036200D01*
X64476189Y-66036200D02*
X64552380Y-66074295D01*
X64552380Y-66074295D02*
X64704761Y-66074295D01*
X64704761Y-66074295D02*
X64780951Y-66036200D01*
X64780951Y-66036200D02*
X64819047Y-65960009D01*
X64819047Y-65960009D02*
X64819047Y-65655247D01*
X64819047Y-65655247D02*
X64780951Y-65579057D01*
X64780951Y-65579057D02*
X64704761Y-65540961D01*
X64704761Y-65540961D02*
X64552380Y-65540961D01*
X64552380Y-65540961D02*
X64476189Y-65579057D01*
X64476189Y-65579057D02*
X64438094Y-65655247D01*
X64438094Y-65655247D02*
X64438094Y-65731438D01*
X64438094Y-65731438D02*
X64819047Y-65807628D01*
X64209523Y-65540961D02*
X63904761Y-65540961D01*
X64095237Y-66074295D02*
X64095237Y-65388580D01*
X64095237Y-65388580D02*
X64057142Y-65312390D01*
X64057142Y-65312390D02*
X63980952Y-65274295D01*
X63980952Y-65274295D02*
X63904761Y-65274295D01*
X63295237Y-65540961D02*
X63295237Y-66074295D01*
X63638094Y-65540961D02*
X63638094Y-65960009D01*
X63638094Y-65960009D02*
X63599999Y-66036200D01*
X63599999Y-66036200D02*
X63523809Y-66074295D01*
X63523809Y-66074295D02*
X63409523Y-66074295D01*
X63409523Y-66074295D02*
X63333332Y-66036200D01*
X63333332Y-66036200D02*
X63295237Y-65998104D01*
X62799999Y-66074295D02*
X62876189Y-66036200D01*
X62876189Y-66036200D02*
X62914284Y-65960009D01*
X62914284Y-65960009D02*
X62914284Y-65274295D01*
X62380951Y-66074295D02*
X62457141Y-66036200D01*
X62457141Y-66036200D02*
X62495236Y-65960009D01*
X62495236Y-65960009D02*
X62495236Y-65274295D01*
X62152379Y-65540961D02*
X61961903Y-66074295D01*
X61771426Y-65540961D02*
X61961903Y-66074295D01*
X61961903Y-66074295D02*
X62038093Y-66264771D01*
X62038093Y-66264771D02*
X62076188Y-66302866D01*
X62076188Y-66302866D02*
X62152379Y-66340961D01*
X66666666Y-67362295D02*
X66666666Y-66828961D01*
X66666666Y-66562295D02*
X66704762Y-66600390D01*
X66704762Y-66600390D02*
X66666666Y-66638485D01*
X66666666Y-66638485D02*
X66628571Y-66600390D01*
X66628571Y-66600390D02*
X66666666Y-66562295D01*
X66666666Y-66562295D02*
X66666666Y-66638485D01*
X66247619Y-66562295D02*
X66323810Y-66714676D01*
X65904762Y-67362295D02*
X65904762Y-66828961D01*
X65904762Y-66905152D02*
X65866667Y-66867057D01*
X65866667Y-66867057D02*
X65790477Y-66828961D01*
X65790477Y-66828961D02*
X65676191Y-66828961D01*
X65676191Y-66828961D02*
X65600000Y-66867057D01*
X65600000Y-66867057D02*
X65561905Y-66943247D01*
X65561905Y-66943247D02*
X65561905Y-67362295D01*
X65561905Y-66943247D02*
X65523810Y-66867057D01*
X65523810Y-66867057D02*
X65447619Y-66828961D01*
X65447619Y-66828961D02*
X65333334Y-66828961D01*
X65333334Y-66828961D02*
X65257143Y-66867057D01*
X65257143Y-66867057D02*
X65219048Y-66943247D01*
X65219048Y-66943247D02*
X65219048Y-67362295D01*
X64114286Y-67362295D02*
X64190476Y-67324200D01*
X64190476Y-67324200D02*
X64228571Y-67286104D01*
X64228571Y-67286104D02*
X64266667Y-67209914D01*
X64266667Y-67209914D02*
X64266667Y-66981342D01*
X64266667Y-66981342D02*
X64228571Y-66905152D01*
X64228571Y-66905152D02*
X64190476Y-66867057D01*
X64190476Y-66867057D02*
X64114286Y-66828961D01*
X64114286Y-66828961D02*
X64000000Y-66828961D01*
X64000000Y-66828961D02*
X63923809Y-66867057D01*
X63923809Y-66867057D02*
X63885714Y-66905152D01*
X63885714Y-66905152D02*
X63847619Y-66981342D01*
X63847619Y-66981342D02*
X63847619Y-67209914D01*
X63847619Y-67209914D02*
X63885714Y-67286104D01*
X63885714Y-67286104D02*
X63923809Y-67324200D01*
X63923809Y-67324200D02*
X64000000Y-67362295D01*
X64000000Y-67362295D02*
X64114286Y-67362295D01*
X63504761Y-66828961D02*
X63504761Y-67362295D01*
X63504761Y-66905152D02*
X63466666Y-66867057D01*
X63466666Y-66867057D02*
X63390476Y-66828961D01*
X63390476Y-66828961D02*
X63276190Y-66828961D01*
X63276190Y-66828961D02*
X63199999Y-66867057D01*
X63199999Y-66867057D02*
X63161904Y-66943247D01*
X63161904Y-66943247D02*
X63161904Y-67362295D01*
X62666666Y-67362295D02*
X62742856Y-67324200D01*
X62742856Y-67324200D02*
X62780951Y-67248009D01*
X62780951Y-67248009D02*
X62780951Y-66562295D01*
X62438094Y-66828961D02*
X62247618Y-67362295D01*
X62057141Y-66828961D02*
X62247618Y-67362295D01*
X62247618Y-67362295D02*
X62323808Y-67552771D01*
X62323808Y-67552771D02*
X62361903Y-67590866D01*
X62361903Y-67590866D02*
X62438094Y-67628961D01*
X67333333Y-68612200D02*
X67257142Y-68650295D01*
X67257142Y-68650295D02*
X67104761Y-68650295D01*
X67104761Y-68650295D02*
X67028571Y-68612200D01*
X67028571Y-68612200D02*
X66990475Y-68536009D01*
X66990475Y-68536009D02*
X66990475Y-68497914D01*
X66990475Y-68497914D02*
X67028571Y-68421723D01*
X67028571Y-68421723D02*
X67104761Y-68383628D01*
X67104761Y-68383628D02*
X67219047Y-68383628D01*
X67219047Y-68383628D02*
X67295237Y-68345533D01*
X67295237Y-68345533D02*
X67333333Y-68269342D01*
X67333333Y-68269342D02*
X67333333Y-68231247D01*
X67333333Y-68231247D02*
X67295237Y-68155057D01*
X67295237Y-68155057D02*
X67219047Y-68116961D01*
X67219047Y-68116961D02*
X67104761Y-68116961D01*
X67104761Y-68116961D02*
X67028571Y-68155057D01*
X66342856Y-68612200D02*
X66419047Y-68650295D01*
X66419047Y-68650295D02*
X66571428Y-68650295D01*
X66571428Y-68650295D02*
X66647618Y-68612200D01*
X66647618Y-68612200D02*
X66685714Y-68536009D01*
X66685714Y-68536009D02*
X66685714Y-68231247D01*
X66685714Y-68231247D02*
X66647618Y-68155057D01*
X66647618Y-68155057D02*
X66571428Y-68116961D01*
X66571428Y-68116961D02*
X66419047Y-68116961D01*
X66419047Y-68116961D02*
X66342856Y-68155057D01*
X66342856Y-68155057D02*
X66304761Y-68231247D01*
X66304761Y-68231247D02*
X66304761Y-68307438D01*
X66304761Y-68307438D02*
X66685714Y-68383628D01*
X65657142Y-68612200D02*
X65733333Y-68650295D01*
X65733333Y-68650295D02*
X65885714Y-68650295D01*
X65885714Y-68650295D02*
X65961904Y-68612200D01*
X65961904Y-68612200D02*
X66000000Y-68536009D01*
X66000000Y-68536009D02*
X66000000Y-68231247D01*
X66000000Y-68231247D02*
X65961904Y-68155057D01*
X65961904Y-68155057D02*
X65885714Y-68116961D01*
X65885714Y-68116961D02*
X65733333Y-68116961D01*
X65733333Y-68116961D02*
X65657142Y-68155057D01*
X65657142Y-68155057D02*
X65619047Y-68231247D01*
X65619047Y-68231247D02*
X65619047Y-68307438D01*
X65619047Y-68307438D02*
X66000000Y-68383628D01*
X65276190Y-68116961D02*
X65276190Y-68650295D01*
X65276190Y-68193152D02*
X65238095Y-68155057D01*
X65238095Y-68155057D02*
X65161905Y-68116961D01*
X65161905Y-68116961D02*
X65047619Y-68116961D01*
X65047619Y-68116961D02*
X64971428Y-68155057D01*
X64971428Y-68155057D02*
X64933333Y-68231247D01*
X64933333Y-68231247D02*
X64933333Y-68650295D01*
X63828571Y-68650295D02*
X63904761Y-68612200D01*
X63904761Y-68612200D02*
X63942856Y-68574104D01*
X63942856Y-68574104D02*
X63980952Y-68497914D01*
X63980952Y-68497914D02*
X63980952Y-68269342D01*
X63980952Y-68269342D02*
X63942856Y-68193152D01*
X63942856Y-68193152D02*
X63904761Y-68155057D01*
X63904761Y-68155057D02*
X63828571Y-68116961D01*
X63828571Y-68116961D02*
X63714285Y-68116961D01*
X63714285Y-68116961D02*
X63638094Y-68155057D01*
X63638094Y-68155057D02*
X63599999Y-68193152D01*
X63599999Y-68193152D02*
X63561904Y-68269342D01*
X63561904Y-68269342D02*
X63561904Y-68497914D01*
X63561904Y-68497914D02*
X63599999Y-68574104D01*
X63599999Y-68574104D02*
X63638094Y-68612200D01*
X63638094Y-68612200D02*
X63714285Y-68650295D01*
X63714285Y-68650295D02*
X63828571Y-68650295D01*
X63219046Y-68116961D02*
X63219046Y-68650295D01*
X63219046Y-68193152D02*
X63180951Y-68155057D01*
X63180951Y-68155057D02*
X63104761Y-68116961D01*
X63104761Y-68116961D02*
X62990475Y-68116961D01*
X62990475Y-68116961D02*
X62914284Y-68155057D01*
X62914284Y-68155057D02*
X62876189Y-68231247D01*
X62876189Y-68231247D02*
X62876189Y-68650295D01*
X62152379Y-68612200D02*
X62228570Y-68650295D01*
X62228570Y-68650295D02*
X62380951Y-68650295D01*
X62380951Y-68650295D02*
X62457141Y-68612200D01*
X62457141Y-68612200D02*
X62495236Y-68574104D01*
X62495236Y-68574104D02*
X62533332Y-68497914D01*
X62533332Y-68497914D02*
X62533332Y-68269342D01*
X62533332Y-68269342D02*
X62495236Y-68193152D01*
X62495236Y-68193152D02*
X62457141Y-68155057D01*
X62457141Y-68155057D02*
X62380951Y-68116961D01*
X62380951Y-68116961D02*
X62228570Y-68116961D01*
X62228570Y-68116961D02*
X62152379Y-68155057D01*
X61504760Y-68612200D02*
X61580951Y-68650295D01*
X61580951Y-68650295D02*
X61733332Y-68650295D01*
X61733332Y-68650295D02*
X61809522Y-68612200D01*
X61809522Y-68612200D02*
X61847618Y-68536009D01*
X61847618Y-68536009D02*
X61847618Y-68231247D01*
X61847618Y-68231247D02*
X61809522Y-68155057D01*
X61809522Y-68155057D02*
X61733332Y-68116961D01*
X61733332Y-68116961D02*
X61580951Y-68116961D01*
X61580951Y-68116961D02*
X61504760Y-68155057D01*
X61504760Y-68155057D02*
X61466665Y-68231247D01*
X61466665Y-68231247D02*
X61466665Y-68307438D01*
X61466665Y-68307438D02*
X61847618Y-68383628D01*
M02*
