%TF.GenerationSoftware,KiCad,Pcbnew,7.0.9*%
%TF.CreationDate,2024-04-14T06:19:29-07:00*%
%TF.ProjectId,tascamusbc,74617363-616d-4757-9362-632e6b696361,rev?*%
%TF.SameCoordinates,Original*%
%TF.FileFunction,Copper,L1,Top*%
%TF.FilePolarity,Positive*%
%FSLAX46Y46*%
G04 Gerber Fmt 4.6, Leading zero omitted, Abs format (unit mm)*
G04 Created by KiCad (PCBNEW 7.0.9) date 2024-04-14 06:19:29*
%MOMM*%
%LPD*%
G01*
G04 APERTURE LIST*
G04 Aperture macros list*
%AMRoundRect*
0 Rectangle with rounded corners*
0 $1 Rounding radius*
0 $2 $3 $4 $5 $6 $7 $8 $9 X,Y pos of 4 corners*
0 Add a 4 corners polygon primitive as box body*
4,1,4,$2,$3,$4,$5,$6,$7,$8,$9,$2,$3,0*
0 Add four circle primitives for the rounded corners*
1,1,$1+$1,$2,$3*
1,1,$1+$1,$4,$5*
1,1,$1+$1,$6,$7*
1,1,$1+$1,$8,$9*
0 Add four rect primitives between the rounded corners*
20,1,$1+$1,$2,$3,$4,$5,0*
20,1,$1+$1,$4,$5,$6,$7,0*
20,1,$1+$1,$6,$7,$8,$9,0*
20,1,$1+$1,$8,$9,$2,$3,0*%
G04 Aperture macros list end*
%TA.AperFunction,SMDPad,CuDef*%
%ADD10RoundRect,0.150000X0.150000X0.425000X-0.150000X0.425000X-0.150000X-0.425000X0.150000X-0.425000X0*%
%TD*%
%TA.AperFunction,SMDPad,CuDef*%
%ADD11RoundRect,0.075000X0.075000X0.500000X-0.075000X0.500000X-0.075000X-0.500000X0.075000X-0.500000X0*%
%TD*%
%TA.AperFunction,CastellatedPad*%
%ADD12O,1.000000X4.000000*%
%TD*%
%TA.AperFunction,CastellatedPad*%
%ADD13O,1.000000X1.800000*%
%TD*%
%TA.AperFunction,SMDPad,CuDef*%
%ADD14RoundRect,0.135000X0.135000X0.185000X-0.135000X0.185000X-0.135000X-0.185000X0.135000X-0.185000X0*%
%TD*%
%TA.AperFunction,SMDPad,CuDef*%
%ADD15RoundRect,0.135000X-0.135000X-0.185000X0.135000X-0.185000X0.135000X0.185000X-0.135000X0.185000X0*%
%TD*%
%TA.AperFunction,CastellatedPad*%
%ADD16RoundRect,0.125000X-0.125000X-0.375000X0.125000X-0.375000X0.125000X0.375000X-0.125000X0.375000X0*%
%TD*%
%TA.AperFunction,ViaPad*%
%ADD17C,0.800000*%
%TD*%
%TA.AperFunction,Conductor*%
%ADD18C,0.152400*%
%TD*%
%TA.AperFunction,Conductor*%
%ADD19C,0.250000*%
%TD*%
G04 APERTURE END LIST*
D10*
%TO.P,J2,A1,GND*%
%TO.N,Net-(J1-GND)*%
X67600000Y-72325000D03*
%TO.P,J2,A4,VBUS*%
%TO.N,Net-(J1-VBUS)*%
X66800000Y-72325000D03*
D11*
%TO.P,J2,A5,CC1*%
%TO.N,Net-(J2-CC1)*%
X65650000Y-72325000D03*
%TO.P,J2,A6,D+*%
%TO.N,Net-(J1-D+)*%
X64650000Y-72325000D03*
%TO.P,J2,A7,D-*%
%TO.N,Net-(J1-D-)*%
X64150000Y-72325000D03*
%TO.P,J2,A8,SBU1*%
%TO.N,N/C*%
X63150000Y-72325000D03*
D10*
%TO.P,J2,A9,VBUS*%
%TO.N,Net-(J1-VBUS)*%
X62000000Y-72325000D03*
%TO.P,J2,A12,GND*%
%TO.N,Net-(J1-GND)*%
X61200000Y-72325000D03*
%TO.P,J2,B1,GND*%
X61200000Y-72325000D03*
%TO.P,J2,B4,VBUS*%
%TO.N,Net-(J1-VBUS)*%
X62000000Y-72325000D03*
D11*
%TO.P,J2,B5,CC2*%
%TO.N,Net-(J2-CC2)*%
X62650000Y-72325000D03*
%TO.P,J2,B6,D+*%
%TO.N,Net-(J1-D+)*%
X63650000Y-72325000D03*
%TO.P,J2,B7,D-*%
%TO.N,Net-(J1-D-)*%
X65150000Y-72325000D03*
%TO.P,J2,B8,SBU2*%
%TO.N,N/C*%
X66150000Y-72325000D03*
D10*
%TO.P,J2,B9,VBUS*%
%TO.N,Net-(J1-VBUS)*%
X66800000Y-72325000D03*
%TO.P,J2,B12,GND*%
%TO.N,Net-(J1-GND)*%
X67600000Y-72325000D03*
D12*
%TO.P,J2,S1,SHIELD*%
%TO.N,N/C*%
X68720000Y-72745000D03*
D13*
X68720000Y-67570000D03*
D12*
X60080000Y-72745000D03*
D13*
X60080000Y-67570000D03*
%TD*%
D14*
%TO.P,R2,1*%
%TO.N,Net-(J2-CC2)*%
X62075000Y-73700000D03*
%TO.P,R2,2*%
%TO.N,Net-(J1-GND)*%
X61055000Y-73700000D03*
%TD*%
D15*
%TO.P,R1,1*%
%TO.N,Net-(J2-CC1)*%
X66725000Y-73700000D03*
%TO.P,R1,2*%
%TO.N,Net-(J1-GND)*%
X67745000Y-73700000D03*
%TD*%
D16*
%TO.P,J1,1,VBUS*%
%TO.N,Net-(J1-VBUS)*%
X62800000Y-74125000D03*
%TO.P,J1,2,D-*%
%TO.N,Net-(J1-D-)*%
X63600000Y-74125000D03*
%TO.P,J1,3,D+*%
%TO.N,Net-(J1-D+)*%
X64400000Y-74125000D03*
%TO.P,J1,4,ID*%
%TO.N,N/C*%
X65200000Y-74125000D03*
%TO.P,J1,5,GND*%
%TO.N,Net-(J1-GND)*%
X66000000Y-74125000D03*
%TD*%
D17*
%TO.N,Net-(J1-VBUS)*%
X63600000Y-70150000D03*
%TO.N,Net-(J1-D-)*%
X64650000Y-71150500D03*
%TO.N,Net-(J1-GND)*%
X66000000Y-69450000D03*
%TD*%
D18*
%TO.N,Net-(J1-VBUS)*%
X66800000Y-72325000D02*
X66800000Y-71750001D01*
X62000000Y-72325000D02*
X62000000Y-71750001D01*
X65199999Y-70150000D02*
X63600000Y-70150000D01*
X62000000Y-71750001D02*
X63600000Y-70150000D01*
X66800000Y-71750001D02*
X65199999Y-70150000D01*
%TO.N,Net-(J1-D-)*%
X65150000Y-72325000D02*
X65150000Y-71650500D01*
X65150000Y-71650500D02*
X64650000Y-71150500D01*
X64150000Y-72325000D02*
X64150000Y-71650500D01*
X64150000Y-71650500D02*
X64650000Y-71150500D01*
%TO.N,Net-(J1-D+)*%
X64400000Y-74000000D02*
X64400000Y-73202401D01*
X63650000Y-72899999D02*
X63650000Y-72325000D01*
X64650000Y-72325000D02*
X64650000Y-72899999D01*
X64373799Y-73176200D02*
X63926201Y-73176200D01*
X64400000Y-73202401D02*
X64373799Y-73176200D01*
X64399999Y-73150000D02*
X64373799Y-73176200D01*
X64650000Y-72899999D02*
X64399999Y-73150000D01*
X63926201Y-73176200D02*
X63650000Y-72899999D01*
%TO.N,Net-(J1-GND)*%
X67943800Y-71981200D02*
X67600000Y-72325000D01*
X60858800Y-70146200D02*
X61555000Y-69450000D01*
X61555000Y-69450000D02*
X66000000Y-69450000D01*
X67250000Y-69450000D02*
X66000000Y-69450000D01*
D19*
X61055000Y-72470000D02*
X61200000Y-72325000D01*
D18*
X67600000Y-73655000D02*
X67745000Y-73800000D01*
X60858800Y-71983800D02*
X61200000Y-72325000D01*
X67943800Y-70143800D02*
X67250000Y-69450000D01*
X60858800Y-70146200D02*
X60858800Y-71983800D01*
X67600000Y-72325000D02*
X67600000Y-73655000D01*
X61055000Y-73800000D02*
X61055000Y-72470000D01*
X67943800Y-70143800D02*
X67943800Y-71981200D01*
%TO.N,Net-(J2-CC1)*%
X66469999Y-73225000D02*
X65907236Y-73225000D01*
X65907236Y-73225000D02*
X65650000Y-72967764D01*
X65650000Y-72967764D02*
X65650000Y-72325000D01*
D19*
X66725000Y-73800000D02*
X66725000Y-73480001D01*
D18*
X66725000Y-73480001D02*
X66469999Y-73225000D01*
%TO.N,Net-(J2-CC2)*%
X62075000Y-73592764D02*
X62650000Y-73017764D01*
X62650000Y-73017764D02*
X62650000Y-72325000D01*
X61925000Y-73754154D02*
X61925000Y-73800000D01*
D19*
X62075000Y-73800000D02*
X62075000Y-73592764D01*
%TD*%
M02*
