M48
; DRILL file {KiCad 7.0.9} date Sun Oct 27 02:46:02 2024
; FORMAT={-:-/ absolute / inch / decimal}
; #@! TF.CreationDate,2024-10-27T02:46:02-07:00
; #@! TF.GenerationSoftware,Kicad,Pcbnew,7.0.9
; #@! TF.FileFunction,Plated,1,2,PTH
FMAT,2
INCH
; #@! TA.AperFunction,Plated,PTH,ComponentDrill
T1C0.0118
; #@! TA.AperFunction,Plated,PTH,ViaDrill
T2C0.0157
; #@! TA.AperFunction,Plated,PTH,ComponentDrill
T3C0.0236
%
G90
G05
T2
X2.4724Y-2.7343
X2.5669Y-2.7618
T1
G00X2.4724Y-2.9281
M15
G01X2.4724Y-2.9085
M16
G05
G00X2.5039Y-2.9281
M15
G01X2.5039Y-2.9085
M16
G05
G00X2.5354Y-2.9281
M15
G01X2.5354Y-2.9085
M16
G05
G00X2.5669Y-2.9281
M15
G01X2.5669Y-2.9085
M16
G05
G00X2.5984Y-2.9281
M15
G01X2.5984Y-2.9085
M16
G05
T3
G00X2.3654Y-2.676
M15
G01X2.3654Y-2.6445
M16
G05
G00X2.3654Y-2.923
M15
G01X2.3654Y-2.8049
M16
G05
G00X2.7055Y-2.676
M15
G01X2.7055Y-2.6445
M16
G05
G00X2.7055Y-2.923
M15
G01X2.7055Y-2.8049
M16
G05
T0
M30
