%TF.GenerationSoftware,KiCad,Pcbnew,7.0.9*%
%TF.CreationDate,2024-10-27T02:46:06-07:00*%
%TF.ProjectId,tascamusbc,74617363-616d-4757-9362-632e6b696361,rev?*%
%TF.SameCoordinates,Original*%
%TF.FileFunction,Legend,Top*%
%TF.FilePolarity,Positive*%
%FSLAX46Y46*%
G04 Gerber Fmt 4.6, Leading zero omitted, Abs format (unit mm)*
G04 Created by KiCad (PCBNEW 7.0.9) date 2024-10-27 02:46:06*
%MOMM*%
%LPD*%
G01*
G04 APERTURE LIST*
%ADD10C,0.150000*%
G04 APERTURE END LIST*
D10*
X60571428Y-65430295D02*
X61028571Y-65430295D01*
X60799999Y-66230295D02*
X60799999Y-65430295D01*
X61257142Y-66192200D02*
X61371428Y-66230295D01*
X61371428Y-66230295D02*
X61561904Y-66230295D01*
X61561904Y-66230295D02*
X61638095Y-66192200D01*
X61638095Y-66192200D02*
X61676190Y-66154104D01*
X61676190Y-66154104D02*
X61714285Y-66077914D01*
X61714285Y-66077914D02*
X61714285Y-66001723D01*
X61714285Y-66001723D02*
X61676190Y-65925533D01*
X61676190Y-65925533D02*
X61638095Y-65887438D01*
X61638095Y-65887438D02*
X61561904Y-65849342D01*
X61561904Y-65849342D02*
X61409523Y-65811247D01*
X61409523Y-65811247D02*
X61333333Y-65773152D01*
X61333333Y-65773152D02*
X61295238Y-65735057D01*
X61295238Y-65735057D02*
X61257142Y-65658866D01*
X61257142Y-65658866D02*
X61257142Y-65582676D01*
X61257142Y-65582676D02*
X61295238Y-65506485D01*
X61295238Y-65506485D02*
X61333333Y-65468390D01*
X61333333Y-65468390D02*
X61409523Y-65430295D01*
X61409523Y-65430295D02*
X61600000Y-65430295D01*
X61600000Y-65430295D02*
X61714285Y-65468390D01*
X62514286Y-66154104D02*
X62476190Y-66192200D01*
X62476190Y-66192200D02*
X62361905Y-66230295D01*
X62361905Y-66230295D02*
X62285714Y-66230295D01*
X62285714Y-66230295D02*
X62171428Y-66192200D01*
X62171428Y-66192200D02*
X62095238Y-66116009D01*
X62095238Y-66116009D02*
X62057143Y-66039819D01*
X62057143Y-66039819D02*
X62019047Y-65887438D01*
X62019047Y-65887438D02*
X62019047Y-65773152D01*
X62019047Y-65773152D02*
X62057143Y-65620771D01*
X62057143Y-65620771D02*
X62095238Y-65544580D01*
X62095238Y-65544580D02*
X62171428Y-65468390D01*
X62171428Y-65468390D02*
X62285714Y-65430295D01*
X62285714Y-65430295D02*
X62361905Y-65430295D01*
X62361905Y-65430295D02*
X62476190Y-65468390D01*
X62476190Y-65468390D02*
X62514286Y-65506485D01*
X62857143Y-66230295D02*
X62857143Y-65430295D01*
X62857143Y-65430295D02*
X63123809Y-66001723D01*
X63123809Y-66001723D02*
X63390476Y-65430295D01*
X63390476Y-65430295D02*
X63390476Y-66230295D01*
X64380953Y-66230295D02*
X64380953Y-65430295D01*
X64380953Y-65430295D02*
X64571429Y-65430295D01*
X64571429Y-65430295D02*
X64685715Y-65468390D01*
X64685715Y-65468390D02*
X64761905Y-65544580D01*
X64761905Y-65544580D02*
X64800000Y-65620771D01*
X64800000Y-65620771D02*
X64838096Y-65773152D01*
X64838096Y-65773152D02*
X64838096Y-65887438D01*
X64838096Y-65887438D02*
X64800000Y-66039819D01*
X64800000Y-66039819D02*
X64761905Y-66116009D01*
X64761905Y-66116009D02*
X64685715Y-66192200D01*
X64685715Y-66192200D02*
X64571429Y-66230295D01*
X64571429Y-66230295D02*
X64380953Y-66230295D01*
X65638096Y-66230295D02*
X65371429Y-65849342D01*
X65180953Y-66230295D02*
X65180953Y-65430295D01*
X65180953Y-65430295D02*
X65485715Y-65430295D01*
X65485715Y-65430295D02*
X65561905Y-65468390D01*
X65561905Y-65468390D02*
X65600000Y-65506485D01*
X65600000Y-65506485D02*
X65638096Y-65582676D01*
X65638096Y-65582676D02*
X65638096Y-65696961D01*
X65638096Y-65696961D02*
X65600000Y-65773152D01*
X65600000Y-65773152D02*
X65561905Y-65811247D01*
X65561905Y-65811247D02*
X65485715Y-65849342D01*
X65485715Y-65849342D02*
X65180953Y-65849342D01*
X65980953Y-65925533D02*
X66590477Y-65925533D01*
X67314286Y-65696961D02*
X67314286Y-66230295D01*
X67123810Y-65392200D02*
X66933333Y-65963628D01*
X66933333Y-65963628D02*
X67428572Y-65963628D01*
X67885715Y-65430295D02*
X67961905Y-65430295D01*
X67961905Y-65430295D02*
X68038096Y-65468390D01*
X68038096Y-65468390D02*
X68076191Y-65506485D01*
X68076191Y-65506485D02*
X68114286Y-65582676D01*
X68114286Y-65582676D02*
X68152381Y-65735057D01*
X68152381Y-65735057D02*
X68152381Y-65925533D01*
X68152381Y-65925533D02*
X68114286Y-66077914D01*
X68114286Y-66077914D02*
X68076191Y-66154104D01*
X68076191Y-66154104D02*
X68038096Y-66192200D01*
X68038096Y-66192200D02*
X67961905Y-66230295D01*
X67961905Y-66230295D02*
X67885715Y-66230295D01*
X67885715Y-66230295D02*
X67809524Y-66192200D01*
X67809524Y-66192200D02*
X67771429Y-66154104D01*
X67771429Y-66154104D02*
X67733334Y-66077914D01*
X67733334Y-66077914D02*
X67695238Y-65925533D01*
X67695238Y-65925533D02*
X67695238Y-65735057D01*
X67695238Y-65735057D02*
X67733334Y-65582676D01*
X67733334Y-65582676D02*
X67771429Y-65506485D01*
X67771429Y-65506485D02*
X67809524Y-65468390D01*
X67809524Y-65468390D02*
X67885715Y-65430295D01*
X60895238Y-66718295D02*
X60895238Y-67365914D01*
X60895238Y-67365914D02*
X60933333Y-67442104D01*
X60933333Y-67442104D02*
X60971428Y-67480200D01*
X60971428Y-67480200D02*
X61047619Y-67518295D01*
X61047619Y-67518295D02*
X61200000Y-67518295D01*
X61200000Y-67518295D02*
X61276190Y-67480200D01*
X61276190Y-67480200D02*
X61314285Y-67442104D01*
X61314285Y-67442104D02*
X61352381Y-67365914D01*
X61352381Y-67365914D02*
X61352381Y-66718295D01*
X61695237Y-67480200D02*
X61809523Y-67518295D01*
X61809523Y-67518295D02*
X61999999Y-67518295D01*
X61999999Y-67518295D02*
X62076190Y-67480200D01*
X62076190Y-67480200D02*
X62114285Y-67442104D01*
X62114285Y-67442104D02*
X62152380Y-67365914D01*
X62152380Y-67365914D02*
X62152380Y-67289723D01*
X62152380Y-67289723D02*
X62114285Y-67213533D01*
X62114285Y-67213533D02*
X62076190Y-67175438D01*
X62076190Y-67175438D02*
X61999999Y-67137342D01*
X61999999Y-67137342D02*
X61847618Y-67099247D01*
X61847618Y-67099247D02*
X61771428Y-67061152D01*
X61771428Y-67061152D02*
X61733333Y-67023057D01*
X61733333Y-67023057D02*
X61695237Y-66946866D01*
X61695237Y-66946866D02*
X61695237Y-66870676D01*
X61695237Y-66870676D02*
X61733333Y-66794485D01*
X61733333Y-66794485D02*
X61771428Y-66756390D01*
X61771428Y-66756390D02*
X61847618Y-66718295D01*
X61847618Y-66718295D02*
X62038095Y-66718295D01*
X62038095Y-66718295D02*
X62152380Y-66756390D01*
X62761904Y-67099247D02*
X62876190Y-67137342D01*
X62876190Y-67137342D02*
X62914285Y-67175438D01*
X62914285Y-67175438D02*
X62952381Y-67251628D01*
X62952381Y-67251628D02*
X62952381Y-67365914D01*
X62952381Y-67365914D02*
X62914285Y-67442104D01*
X62914285Y-67442104D02*
X62876190Y-67480200D01*
X62876190Y-67480200D02*
X62800000Y-67518295D01*
X62800000Y-67518295D02*
X62495238Y-67518295D01*
X62495238Y-67518295D02*
X62495238Y-66718295D01*
X62495238Y-66718295D02*
X62761904Y-66718295D01*
X62761904Y-66718295D02*
X62838095Y-66756390D01*
X62838095Y-66756390D02*
X62876190Y-66794485D01*
X62876190Y-66794485D02*
X62914285Y-66870676D01*
X62914285Y-66870676D02*
X62914285Y-66946866D01*
X62914285Y-66946866D02*
X62876190Y-67023057D01*
X62876190Y-67023057D02*
X62838095Y-67061152D01*
X62838095Y-67061152D02*
X62761904Y-67099247D01*
X62761904Y-67099247D02*
X62495238Y-67099247D01*
X63295238Y-67213533D02*
X63904762Y-67213533D01*
X64742857Y-67442104D02*
X64704761Y-67480200D01*
X64704761Y-67480200D02*
X64590476Y-67518295D01*
X64590476Y-67518295D02*
X64514285Y-67518295D01*
X64514285Y-67518295D02*
X64399999Y-67480200D01*
X64399999Y-67480200D02*
X64323809Y-67404009D01*
X64323809Y-67404009D02*
X64285714Y-67327819D01*
X64285714Y-67327819D02*
X64247618Y-67175438D01*
X64247618Y-67175438D02*
X64247618Y-67061152D01*
X64247618Y-67061152D02*
X64285714Y-66908771D01*
X64285714Y-66908771D02*
X64323809Y-66832580D01*
X64323809Y-66832580D02*
X64399999Y-66756390D01*
X64399999Y-66756390D02*
X64514285Y-66718295D01*
X64514285Y-66718295D02*
X64590476Y-66718295D01*
X64590476Y-66718295D02*
X64704761Y-66756390D01*
X64704761Y-66756390D02*
X64742857Y-66794485D01*
X65580952Y-66718295D02*
X65847619Y-67518295D01*
X65847619Y-67518295D02*
X66114285Y-66718295D01*
X66799999Y-67518295D02*
X66342856Y-67518295D01*
X66571428Y-67518295D02*
X66571428Y-66718295D01*
X66571428Y-66718295D02*
X66495237Y-66832580D01*
X66495237Y-66832580D02*
X66419047Y-66908771D01*
X66419047Y-66908771D02*
X66342856Y-66946866D01*
X67142857Y-67442104D02*
X67180952Y-67480200D01*
X67180952Y-67480200D02*
X67142857Y-67518295D01*
X67142857Y-67518295D02*
X67104761Y-67480200D01*
X67104761Y-67480200D02*
X67142857Y-67442104D01*
X67142857Y-67442104D02*
X67142857Y-67518295D01*
X67485713Y-66794485D02*
X67523809Y-66756390D01*
X67523809Y-66756390D02*
X67599999Y-66718295D01*
X67599999Y-66718295D02*
X67790475Y-66718295D01*
X67790475Y-66718295D02*
X67866666Y-66756390D01*
X67866666Y-66756390D02*
X67904761Y-66794485D01*
X67904761Y-66794485D02*
X67942856Y-66870676D01*
X67942856Y-66870676D02*
X67942856Y-66946866D01*
X67942856Y-66946866D02*
X67904761Y-67061152D01*
X67904761Y-67061152D02*
X67447618Y-67518295D01*
X67447618Y-67518295D02*
X67942856Y-67518295D01*
X62019047Y-68806295D02*
X62019047Y-68006295D01*
X62019047Y-68311057D02*
X62095237Y-68272961D01*
X62095237Y-68272961D02*
X62247618Y-68272961D01*
X62247618Y-68272961D02*
X62323809Y-68311057D01*
X62323809Y-68311057D02*
X62361904Y-68349152D01*
X62361904Y-68349152D02*
X62399999Y-68425342D01*
X62399999Y-68425342D02*
X62399999Y-68653914D01*
X62399999Y-68653914D02*
X62361904Y-68730104D01*
X62361904Y-68730104D02*
X62323809Y-68768200D01*
X62323809Y-68768200D02*
X62247618Y-68806295D01*
X62247618Y-68806295D02*
X62095237Y-68806295D01*
X62095237Y-68806295D02*
X62019047Y-68768200D01*
X62666666Y-68272961D02*
X62857142Y-68806295D01*
X63047619Y-68272961D02*
X62857142Y-68806295D01*
X62857142Y-68806295D02*
X62780952Y-68996771D01*
X62780952Y-68996771D02*
X62742857Y-69034866D01*
X62742857Y-69034866D02*
X62666666Y-69072961D01*
X63923809Y-68768200D02*
X64000000Y-68806295D01*
X64000000Y-68806295D02*
X64152381Y-68806295D01*
X64152381Y-68806295D02*
X64228571Y-68768200D01*
X64228571Y-68768200D02*
X64266667Y-68692009D01*
X64266667Y-68692009D02*
X64266667Y-68653914D01*
X64266667Y-68653914D02*
X64228571Y-68577723D01*
X64228571Y-68577723D02*
X64152381Y-68539628D01*
X64152381Y-68539628D02*
X64038095Y-68539628D01*
X64038095Y-68539628D02*
X63961905Y-68501533D01*
X63961905Y-68501533D02*
X63923809Y-68425342D01*
X63923809Y-68425342D02*
X63923809Y-68387247D01*
X63923809Y-68387247D02*
X63961905Y-68311057D01*
X63961905Y-68311057D02*
X64038095Y-68272961D01*
X64038095Y-68272961D02*
X64152381Y-68272961D01*
X64152381Y-68272961D02*
X64228571Y-68311057D01*
X64952381Y-68806295D02*
X64952381Y-68387247D01*
X64952381Y-68387247D02*
X64914286Y-68311057D01*
X64914286Y-68311057D02*
X64838095Y-68272961D01*
X64838095Y-68272961D02*
X64685714Y-68272961D01*
X64685714Y-68272961D02*
X64609524Y-68311057D01*
X64952381Y-68768200D02*
X64876190Y-68806295D01*
X64876190Y-68806295D02*
X64685714Y-68806295D01*
X64685714Y-68806295D02*
X64609524Y-68768200D01*
X64609524Y-68768200D02*
X64571428Y-68692009D01*
X64571428Y-68692009D02*
X64571428Y-68615819D01*
X64571428Y-68615819D02*
X64609524Y-68539628D01*
X64609524Y-68539628D02*
X64685714Y-68501533D01*
X64685714Y-68501533D02*
X64876190Y-68501533D01*
X64876190Y-68501533D02*
X64952381Y-68463438D01*
X65333334Y-68806295D02*
X65333334Y-68006295D01*
X65333334Y-68311057D02*
X65409524Y-68272961D01*
X65409524Y-68272961D02*
X65561905Y-68272961D01*
X65561905Y-68272961D02*
X65638096Y-68311057D01*
X65638096Y-68311057D02*
X65676191Y-68349152D01*
X65676191Y-68349152D02*
X65714286Y-68425342D01*
X65714286Y-68425342D02*
X65714286Y-68653914D01*
X65714286Y-68653914D02*
X65676191Y-68730104D01*
X65676191Y-68730104D02*
X65638096Y-68768200D01*
X65638096Y-68768200D02*
X65561905Y-68806295D01*
X65561905Y-68806295D02*
X65409524Y-68806295D01*
X65409524Y-68806295D02*
X65333334Y-68768200D01*
X66171429Y-68806295D02*
X66095239Y-68768200D01*
X66095239Y-68768200D02*
X66057144Y-68692009D01*
X66057144Y-68692009D02*
X66057144Y-68006295D01*
X66780954Y-68768200D02*
X66704763Y-68806295D01*
X66704763Y-68806295D02*
X66552382Y-68806295D01*
X66552382Y-68806295D02*
X66476192Y-68768200D01*
X66476192Y-68768200D02*
X66438096Y-68692009D01*
X66438096Y-68692009D02*
X66438096Y-68387247D01*
X66438096Y-68387247D02*
X66476192Y-68311057D01*
X66476192Y-68311057D02*
X66552382Y-68272961D01*
X66552382Y-68272961D02*
X66704763Y-68272961D01*
X66704763Y-68272961D02*
X66780954Y-68311057D01*
X66780954Y-68311057D02*
X66819049Y-68387247D01*
X66819049Y-68387247D02*
X66819049Y-68463438D01*
X66819049Y-68463438D02*
X66438096Y-68539628D01*
M02*
